<?xml version="1.0" encoding="utf-8"?>
<!-- Generator: Adobe Illustrator 25.2.1, SVG Export Plug-In . SVG Version: 6.00 Build 0)  -->
<svg version="1.1" xmlns="http://www.w3.org/2000/svg" xmlns:xlink="http://www.w3.org/1999/xlink" x="0px" y="0px"
	 viewBox="0 0 250 250" style="enable-background:new 0 0 250 250;" xml:space="preserve">
<style type="text/css">
	.st0{display:none;}
	.st1{display:inline;}
	.st2{fill:#DD0031;}
	.st3{fill:#C3002F;}
	.st4{fill:#FFFFFF;}
	.st5{fill:#DF1F00;}
	.st6{font-family:'Exo-Black';}
	.st7{font-size:169px;}
	.st8{font-size:60px;}
</style>
<g id="Layer_1" class="st0">
	<g id="Layer_1_1_" class="st1">
		<g>
			<polygon class="st2" points="125,30 125,30 125,30 31.9,63.2 46.1,186.3 125,230 125,230 125,230 203.9,186.3 218.1,63.2 			"/>
			<polygon class="st3" points="125,30 125,52.2 125,52.1 125,153.4 125,153.4 125,230 125,230 203.9,186.3 218.1,63.2 			"/>
			<path class="st4" d="M125,52.1L66.8,182.6l0,0h21.7l0,0l11.7-29.2h49.4l11.7,29.2l0,0H183l0,0L125,52.1L125,52.1L125,52.1
				L125,52.1L125,52.1z M142,135.4h-34l17-40.9L142,135.4z"/>
		</g>
	</g>
	<g id="Layer_2_1_" class="st1">
		<polygon class="st5" points="-100.5,133.5 -198.5,191.3 -297.5,135.3 -298.5,21.5 -200.5,-36.2 -101.5,19.8 		"/>
	</g>
</g>
<g id="Layer_3">
	<polygon class="st2" points="218.1,196.8 203.9,73.7 125,30 46.1,73.7 31.9,196.8 125,230 	"/>
</g>
<g id="Layer_2">
	<polygon class="st3" points="218.1,196.8 125,230 125,30 203.9,73.7 	"/>
</g>
<g id="Layer_4">
	<text transform="matrix(1 0 0 1 72.6936 192.2795)" class="st4 st6 st7">F</text>
	<text transform="matrix(1 0 0 1 137.49 192.9248)" class="st4 st6 st8">s</text>
</g>
</svg>
